<?xml version="1.0"?>
<svg width="337" height="31.827" xmlns="http://www.w3.org/2000/svg" xmlns:svg="http://www.w3.org/2000/svg">
 <defs>
  <clipPath id="clip-path">
   <rect data-name="Rectángulo 127" fill="#172126" height="31.83" id="Rectángulo_127" width="337" x="-1" y="1"/>
  </clipPath>
 </defs>
 <g class="layer">
  <title>Layer 1</title>
  <g data-name="Grupo 110" id="Grupo_110">
   <g clip-path="url(#clip-path)" data-name="Grupo 109" id="Grupo_109" transform="translate(0 0)">
    <path d="m265.96,2.92l11.1,0c6.73,0 11.36,3.12 11.36,8.47l0,0.08c0,5.82 -5.55,8.83 -11.93,8.83l-8.26,0l0,10.33l-2.27,0l0,-27.72zm10.66,15.48c5.69,0 9.53,-2.69 9.53,-6.81l0,-0.07c0,-4.39 -3.76,-6.69 -9.27,-6.69l-8.65,0l0,13.58l8.39,0z" data-name="Trazado 157" fill="#ffffff" id="Trazado_157" transform="translate(-103.741 -0.394)"/>
    <path d="m318.78,2.59l2.19,0l14.25,27.91l-2.5,0l-3.89,-7.76l-18.05,0l-3.89,7.76l-2.36,0l14.25,-27.91zm9.09,18.3l-8.04,-16.04l-8.09,16.04l16.13,0z" data-name="Trazado 158" fill="#ffffff" id="Trazado_158" transform="translate(-118.783 -0.255)"/>
    <path d="m365.46,2.92l2.27,0l0,25.81l17.97,0l0,1.9l-20.24,0l0,-27.72z" data-name="Trazado 159" fill="#ffffff" id="Trazado_159" transform="translate(-142.548 -0.394)"/>
    <path d="m419.77,2.59l2.19,0l14.25,27.91l-2.49,0l-3.89,-7.76l-18.06,0l-3.89,7.76l-2.36,0l14.25,-27.91zm9.09,18.3l-8.04,-16.04l-8.08,16.04l16.12,0z" data-name="Trazado 160" fill="#ffffff" id="Trazado_160" transform="translate(-158.177 -0.255)"/>
    <path d="m461.36,16.55l0,-0.08c0,-7.83 6.47,-14.33 15.3,-14.33c5.47,0 8.74,1.82 11.89,4.44l-1.62,1.5c-2.66,-2.34 -5.72,-4.08 -10.31,-4.08c-7.35,0 -12.9,5.43 -12.9,12.39l0,0.08c0,7 5.64,12.47 12.94,12.47c4.41,0 7.43,-1.54 10.54,-4.32l1.52,1.35c-3.23,2.89 -6.73,4.83 -12.15,4.83c-8.74,0 -15.21,-6.29 -15.21,-14.25" data-name="Trazado 161" fill="#ffffff" id="Trazado_161" transform="translate(-179.957 -0.058)"/>
    <path d="m516.48,2.92l21.77,0l0,1.9l-19.5,0l0,10.89l17.53,0l0,1.9l-17.53,0l0,11.12l19.72,0l0,1.9l-21.99,0l0,-27.72z" data-name="Trazado 162" fill="#ffffff" id="Trazado_162" transform="translate(-201.458 -0.394)"/>
    <path d="m23.65,15.98a14.24,12.9 0 0 0 -3.6,-1.68a37.35,33.83 0 0 0 -4.75,-1.2q-1.57,-0.32 -2.6,-0.62a8.89,8.05 0 0 1 -1.62,-0.6a2.17,1.97 0 0 1 -0.83,-0.65a1.72,1.56 0 0 1 -0.24,-0.82l0,-0.08a1.69,1.53 0 0 1 0.77,-1.27a3.82,3.46 0 0 1 2.3,-0.51a13.03,11.8 0 0 1 4.26,0.69a17.2,15.58 0 0 1 4.31,2.04l4.24,-5.43a17.67,16 0 0 0 -5.58,-2.77a22.02,19.94 0 0 0 -7.02,-0.94a15.76,14.27 0 0 0 -4.94,0.65a11.1,10.05 0 0 0 -3.74,1.84a8.72,7.9 0 0 0 -2.36,2.81a9.41,8.52 0 0 0 -0.81,3.56l0,0.08a7.97,7.22 0 0 0 0.9,3.58a7.91,7.16 0 0 0 2.45,2.41a13.94,12.63 0 0 0 3.65,1.58q2.1,0.62 4.55,1.13q1.57,0.32 2.56,0.61a8.34,7.55 0 0 1 1.57,0.62a2.23,2.02 0 0 1 0.81,0.65a1.65,1.49 0 0 1 0.22,0.77l0,0.08a1.72,1.56 0 0 1 -0.9,1.4a5.06,4.58 0 0 1 -2.6,0.49a15.58,14.11 0 0 1 -9.93,-3.32l-4.72,5.12a18.9,17.12 0 0 0 6.54,3.47a23.73,21.49 0 0 0 7.8,1.15a17.79,16.11 0 0 0 5.07,-0.61a11.39,10.32 0 0 0 3.89,-1.78a8.99,8.14 0 0 0 2.51,-2.83a9.42,8.53 0 0 0 0.9,-3.8l0,-0.08a8.05,7.29 0 0 0 -0.78,-3.34a7.42,6.72 0 0 0 -2.28,-2.39" data-name="Trazado 163" fill="#ffffff" id="Trazado_163" transform="translate(0 -0.056)"/>
    <path d="m72.92,5.46a11.5,10.42 0 0 0 -4.03,-1.9a17.89,16.2 0 0 0 -5.24,-0.65l-13.12,0l0,27.72l8.48,0l0,-7.92l4.2,0a18.97,17.18 0 0 0 5.27,-0.63a11.8,10.69 0 0 0 4.18,-1.9a9.76,8.84 0 0 0 2.73,-3.12a10.93,9.9 0 0 0 0.98,-4.31l0,-0.08a11.06,10.02 0 0 0 -0.9,-4.12a9.21,8.34 0 0 0 -2.55,-3.07m-5.03,7.61a3.61,3.27 0 0 1 -1.29,2.64a5.39,4.88 0 0 1 -3.56,0.98l-4.03,0l0,-7.36l3.98,0a5.63,5.1 0 0 1 3.61,0.93a3.63,3.29 0 0 1 1.29,2.73l0,0.08z" data-name="Trazado 164" fill="#ffffff" id="Trazado_164" transform="translate(-19.711 -0.391)"/>
    <path d="m183.78,17.76a9.63,8.72 0 0 0 1.7,-5.31l0,-0.08a9.46,8.57 0 0 0 -2.71,-6.45a10.25,9.28 0 0 0 -3.97,-2.22a17.9,16.21 0 0 0 -5.99,-0.8l-14.47,0l0,27.72l8.48,0l0,-8.4l3.71,0l6.17,8.4l9.79,0l-7.3,-9.66a10.76,9.75 0 0 0 4.59,-3.21m-6.82,-4.83a3.26,2.95 0 0 1 -1.18,2.39a5.12,4.64 0 0 1 -3.37,0.9l-5.6,0l0,-6.65l5.55,0a5.6,5.07 0 0 1 3.37,0.82a3.17,2.87 0 0 1 1.22,2.47l0.01,0.07z" data-name="Trazado 165" fill="#ffffff" id="Trazado_165" transform="translate(-61.761 -0.391)"/>
    <path d="m207.07,2.91l0,6.74l9.19,0l0,20.99l8.48,0l0,-20.99l9.18,0l0,-6.74l-26.85,0z" data-name="Trazado 166" fill="#ffffff" id="Trazado_166" transform="translate(-80.773 -0.391)"/>
    <path d="m125.34,6.19a16.14,14.62 0 0 0 -5.2,-3.06a17.88,16.19 0 0 0 -13.12,0a16.48,14.93 0 0 0 -5.24,3.08a15.61,14.14 0 0 0 -4.73,10.2l0,0.08a15.39,13.94 0 0 0 1.25,5.59a15.61,14.14 0 0 0 3.43,4.55a16.11,14.59 0 0 0 5.2,3.07a17.88,16.19 0 0 0 13.12,0a16.49,14.94 0 0 0 5.24,-3.09a15.61,14.14 0 0 0 4.72,-10.2l0,-0.07a15.39,13.94 0 0 0 -1.24,-5.59a15.66,14.18 0 0 0 -3.43,-4.56m-3.89,8.51c-0.01,0 -0.02,0 -0.03,0l0,3.92a6.2,5.62 0 0 1 -6.2,5.62l-3.38,0a6.2,5.62 0 0 1 -6.2,-5.62l0,-3.92c-0.01,0 -0.02,0 -0.03,0a2.02,1.83 0 1 1 2.03,-1.83a1.99,1.8 0 0 1 -0.95,1.51l2.61,4.1l0.29,0.44l0.28,-0.44l3.59,-5.63a2.02,1.83 0 1 1 0.14,0l3.59,5.63l0.29,0.44l0.28,-0.44l2.62,-4.1a1.99,1.8 0 0 1 -0.95,-1.51a2.02,1.83 0 1 1 2.02,1.83" data-name="Trazado 167" fill="#ffffff" id="Trazado_167" transform="translate(-37.857 0)"/>
   </g>
  </g>
 </g>
</svg>